<svg width="128" height="22" viewBox="0 0 128 22" fill="none" xmlns="http://www.w3.org/2000/svg">
<g clip-path="url(#clip0_10_527)">
<path d="M43.06 18.72L47.04 18.64C47.1865 18.6372 47.3286 18.6816 47.4417 18.7656C47.5549 18.8495 47.6321 18.9678 47.66 19.1C48.0467 20.8667 47.5767 21.6933 46.25 21.58C44.24 21.41 42.15 21.5 40.06 21.5C39.9115 21.5 39.769 21.441 39.664 21.336C39.559 21.231 39.5 21.0885 39.5 20.94C39.5 14.64 39.82 8.24 39.4 2.24C39.28 0.579997 40.07 0.0266642 41.77 0.579998C41.9033 0.620585 42.0206 0.706251 42.105 0.824775C42.1894 0.9433 42.2366 1.08862 42.24 1.24L42.53 18.2C42.5327 18.3405 42.59 18.4743 42.6894 18.5718C42.7888 18.6693 42.9221 18.7226 43.06 18.72Z" fill="#A8D9F0"/>
<path d="M52.71 7.99999C52.1433 6.47333 51.92 6.80666 52.04 8.99999L51.94 20.94C51.9397 21.0859 51.8899 21.2263 51.7997 21.3349C51.7095 21.4435 51.5852 21.5128 51.45 21.53C50.9567 21.5967 50.48 21.55 50.02 21.39C49.8857 21.3435 49.7692 21.2511 49.6867 21.1256C49.6043 21.0001 49.56 20.8478 49.56 20.69L49.5 1.43999C49.5006 1.2915 49.5513 1.14754 49.6438 1.03141C49.7364 0.915273 49.8654 0.833742 50.01 0.799994C51.47 0.44666 52.5567 0.443329 53.27 0.789995C53.3897 0.845738 53.4973 0.945521 53.583 1.08011C53.6686 1.21471 53.7295 1.37976 53.76 1.56L55.88 14.6C56.1133 16.0267 56.34 16.02 56.56 14.58L58.61 1.16999C58.6352 1.00589 58.7071 0.856288 58.8121 0.74943C58.9171 0.642572 59.048 0.585857 59.18 0.589995L62.41 0.619993C62.5675 0.622651 62.7177 0.69336 62.8281 0.816847C62.9385 0.940334 63.0002 1.10669 63 1.27999C63 7.69999 63 13.8133 63 19.62C63 21.57 63.04 21.96 60.51 21.31C60.3632 21.2725 60.2328 21.1856 60.1389 21.0627C60.0449 20.9398 59.9926 20.7878 59.99 20.63L59.78 7.24C59.7733 6.72666 59.62 6.63333 59.32 6.95999C59.29 6.99999 57.68 19.42 57.41 20.82C57.3803 20.9766 57.3116 21.1215 57.2113 21.2395C57.111 21.3574 56.9827 21.4439 56.84 21.49C55.5133 21.91 54.7333 21.4133 54.5 20C53.58 14.4667 52.9833 10.4667 52.71 7.99999Z" fill="#A8D9F0"/>
<path d="M82.63 15.81L84.69 1.48999C84.7152 1.31462 84.7686 1.15199 84.8464 1.01371C84.9241 0.875434 85.0244 0.764898 85.14 0.689988C85.7867 0.263321 86.4267 0.279991 87.06 0.739991C87.1771 0.823915 87.2674 0.944456 87.3205 1.08775C87.3735 1.23104 87.3872 1.39127 87.36 1.54999L84.27 20.94C84.2483 21.0873 84.1778 21.222 84.0713 21.3193C83.9648 21.4167 83.8294 21.4701 83.69 21.47H80.31C80.1734 21.4703 80.0403 21.4183 79.9342 21.3232C79.8281 21.2281 79.7558 21.0959 79.73 20.95L76.64 1.31999C76.6143 1.16806 76.6373 1.01387 76.7049 0.884175C76.7725 0.75448 76.8804 0.657473 77.01 0.60999C77.67 0.363323 78.3267 0.363323 78.98 0.60999C79.1188 0.658362 79.2425 0.748232 79.3377 0.869862C79.4329 0.991491 79.4959 1.14024 79.52 1.29999L81.64 15.8C81.9733 18.0867 82.3033 18.09 82.63 15.81Z" fill="#A8D9F0"/>
<path d="M91.9983 0.511945L89.7783 0.50807C89.6292 0.50781 89.5081 0.628481 89.5078 0.777598L89.4722 21.2176C89.4719 21.3667 89.5926 21.4878 89.7417 21.488L91.9617 21.4919C92.1108 21.4922 92.2319 21.3715 92.2322 21.2224L92.2678 0.782415C92.2681 0.633298 92.1474 0.512205 91.9983 0.511945Z" fill="#A8D9F0"/>
<path d="M98.27 13.06L98.38 18.07C98.383 18.2029 98.4416 18.3298 98.5439 18.4247C98.6462 18.5195 98.7844 18.5751 98.93 18.58C100.35 18.65 101.77 18.78 103.16 18.53C104.02 18.3833 104.243 19.2067 103.83 21C103.796 21.142 103.716 21.2685 103.602 21.3591C103.487 21.4498 103.346 21.4994 103.2 21.5H96.02C95.8821 21.5 95.7498 21.4452 95.6523 21.3477C95.5548 21.2502 95.5 21.1179 95.5 20.98V1.27C95.5 1.16888 95.5199 1.06875 95.5586 0.975334C95.5973 0.881913 95.654 0.79703 95.7255 0.725529C95.797 0.654028 95.8819 0.597309 95.9753 0.558613C96.0688 0.519917 96.1689 0.5 96.27 0.5H103.25C103.402 0.500361 103.549 0.545086 103.669 0.627743C103.79 0.710399 103.877 0.826727 103.92 0.959999C104.647 3.18667 103.503 3.98 100.49 3.34C98.8767 2.99333 98.1067 3.56 98.18 5.04L98.37 8.81C98.3773 8.95618 98.4386 9.09443 98.5421 9.19792C98.6456 9.30141 98.7838 9.36274 98.93 9.37L102.19 9.57C102.349 9.57918 102.498 9.62935 102.618 9.71355C102.738 9.79775 102.823 9.91183 102.86 10.04C103.053 10.6533 103.107 11.29 103.02 11.95C103.003 12.0861 102.934 12.2116 102.825 12.3035C102.717 12.3953 102.577 12.4473 102.43 12.45L98.81 12.55C98.6643 12.5529 98.5256 12.6082 98.4244 12.7038C98.3231 12.7994 98.2676 12.9275 98.27 13.06Z" fill="#A8D9F0"/>
<path d="M113.77 1.33002C115.13 1.82335 115.873 2.79001 116 4.23001C116.387 8.74335 116.387 13.2467 116 17.74C115.867 19.2933 115.06 20.3167 113.58 20.81C111.48 21.5033 109.347 21.6967 107.18 21.39C107.038 21.3706 106.908 21.301 106.814 21.1943C106.72 21.0875 106.669 20.9509 106.67 20.81L106.51 1.07001C106.507 0.926488 106.561 0.787319 106.659 0.681246C106.758 0.575173 106.894 0.510296 107.04 0.500014C109.447 0.306681 111.69 0.583349 113.77 1.33002ZM113.148 4.44662C113.148 4.32448 113.124 4.20357 113.077 4.09082C113.03 3.97806 112.961 3.87565 112.875 3.78944C112.788 3.70323 112.686 3.6349 112.573 3.58837C112.46 3.54183 112.339 3.51799 112.217 3.51821L110.157 3.52181C109.91 3.52227 109.674 3.62066 109.5 3.79537C109.326 3.97008 109.228 4.20678 109.228 4.45341L109.251 17.6734C109.252 17.7956 109.276 17.9165 109.323 18.0292C109.37 18.142 109.439 18.2444 109.525 18.3306C109.612 18.4168 109.714 18.4851 109.827 18.5317C109.94 18.5782 110.061 18.602 110.183 18.6018L112.243 18.5982C112.49 18.5978 112.726 18.4994 112.9 18.3247C113.074 18.15 113.172 17.9133 113.171 17.6666L113.148 4.44662Z" fill="#A8D9F0"/>
<path d="M126.48 11.48C129.36 13.74 128.9 19.35 125.44 20.94C123.967 21.6133 121.88 21.76 119.18 21.38C119.038 21.3606 118.909 21.2932 118.815 21.1902C118.721 21.0872 118.67 20.9557 118.67 20.82L118.55 1.06999C118.55 0.930797 118.602 0.796638 118.697 0.69457C118.791 0.592501 118.921 0.530117 119.06 0.519994C127.513 -0.0800062 129.923 3.32666 126.29 10.74C126.231 10.8621 126.217 11.0024 126.252 11.1372C126.287 11.272 126.367 11.393 126.48 11.48ZM124.71 4.20999C124.71 4.02965 124.638 3.85669 124.511 3.72916C124.383 3.60164 124.21 3.52999 124.03 3.52999H121.91C121.73 3.52999 121.557 3.60164 121.429 3.72916C121.302 3.85669 121.23 4.02965 121.23 4.20999V8.76999C121.23 8.95034 121.302 9.1233 121.429 9.25082C121.557 9.37835 121.73 9.44999 121.91 9.44999H124.03C124.21 9.44999 124.383 9.37835 124.511 9.25082C124.638 9.1233 124.71 8.95034 124.71 8.76999V4.20999ZM123.19 12.28C122.957 12.1933 122.48 12.3033 121.76 12.61C121.621 12.669 121.502 12.7678 121.418 12.8941C121.334 13.0204 121.29 13.1685 121.29 13.32L121.27 17.56C121.269 17.6829 121.293 17.8049 121.34 17.9189C121.388 18.0329 121.458 18.1366 121.548 18.224C121.637 18.3114 121.743 18.3808 121.86 18.4282C121.977 18.4756 122.103 18.5 122.23 18.5C124.69 18.5 125.61 17.11 124.99 14.33C124.886 13.8639 124.667 13.4317 124.352 13.0733C124.037 12.715 123.638 12.4421 123.19 12.28Z" fill="#A8D9F0"/>
<path d="M8.97001 3.61001C8.18334 3.33668 7.43667 3.39668 6.73001 3.79001C6.60055 3.86066 6.48987 3.96796 6.40786 4.10233C6.32584 4.2367 6.27504 4.39394 6.26001 4.56001C5.85334 8.86001 5.85334 13.1567 6.26001 17.45C6.27496 17.6007 6.33131 17.7447 6.42296 17.8663C6.51462 17.988 6.63808 18.0826 6.78001 18.14C12.72 20.48 6.82001 12.64 11.96 13.93C12.118 13.9688 12.2579 14.0615 12.3562 14.1926C12.4545 14.3237 12.5052 14.4851 12.5 14.65C12.45 16.96 12.49 20.04 9.81001 20.88C1.13001 23.62 2.88001 11.15 3.00001 6.50001C3.21001 -1.40999 13.34 -1.20999 12.38 7.07001C12.365 7.20813 12.2964 7.33508 12.1883 7.42448C12.0803 7.51388 11.9412 7.55883 11.8 7.55001L10.31 7.47001C10.1901 7.46342 10.0757 7.40627 9.98761 7.30898C9.89951 7.21169 9.84357 7.08075 9.83001 6.94001L9.56001 4.30001C9.54516 4.15061 9.4817 4.00623 9.37715 3.88395C9.27259 3.76167 9.1313 3.66661 8.97001 3.61001Z" fill="#A8D9F0"/>
<path d="M24.6906 16.6452C24.6875 17.2466 24.5659 17.8416 24.3328 18.3961C24.0997 18.9505 23.7597 19.4537 23.3322 19.8767C22.9047 20.2998 22.398 20.6345 21.8411 20.8618C21.2842 21.089 20.6881 21.2043 20.0866 21.2012L19.5866 21.1986C18.9852 21.1954 18.3902 21.0738 17.8358 20.8408C17.2813 20.6077 16.7782 20.2677 16.3551 19.8402C15.9321 19.4126 15.5974 18.906 15.3701 18.3491C15.1429 17.7922 15.0275 17.196 15.0307 16.5946L15.0894 5.37479C15.0925 4.77333 15.2141 4.17838 15.4472 3.62391C15.6803 3.06945 16.0203 2.56631 16.4478 2.14325C16.8753 1.72018 17.382 1.38547 17.9389 1.15822C18.4958 0.930965 19.0919 0.815629 19.6934 0.818789L20.1934 0.821387C20.7949 0.824543 21.3898 0.946135 21.9442 1.17922C22.4987 1.4123 23.0018 1.75231 23.4249 2.17983C23.8479 2.60735 24.1826 3.11401 24.4099 3.67088C24.6371 4.22776 24.7525 4.82394 24.7493 5.42539L24.6906 16.6452ZM21.7492 4.81679C21.7486 4.47202 21.6111 4.14162 21.3669 3.89826C21.1226 3.65489 20.7918 3.5185 20.447 3.51909L19.347 3.52099C19.1763 3.52128 19.0073 3.55519 18.8497 3.62078C18.6921 3.68638 18.5489 3.78238 18.4284 3.9033C18.3079 4.02422 18.2124 4.1677 18.1473 4.32553C18.0823 4.48336 18.0489 4.65247 18.0492 4.82319L18.0708 17.1632C18.0714 17.508 18.2089 17.8384 18.4532 18.0817C18.6974 18.3251 19.0282 18.4615 19.373 18.4609L20.473 18.459C20.6437 18.4587 20.8127 18.4248 20.9703 18.3592C21.1279 18.2936 21.2711 18.1976 21.3916 18.0767C21.5121 17.9557 21.6076 17.8123 21.6727 17.6544C21.7378 17.4966 21.7711 17.3275 21.7708 17.1568L21.7492 4.81679Z" fill="#A8D9F0"/>
<path d="M36.71 16.6C36.71 17.8173 36.2264 18.9848 35.3656 19.8456C34.5048 20.7064 33.3374 21.19 32.12 21.19H31.66C30.4427 21.19 29.2752 20.7064 28.4144 19.8456C27.5536 18.9848 27.07 17.8173 27.07 16.6V5.4C27.07 4.18265 27.5536 3.01517 28.4144 2.15438C29.2752 1.29359 30.4427 0.809998 31.66 0.809998H32.12C33.3374 0.809998 34.5048 1.29359 35.3656 2.15438C36.2264 3.01517 36.71 4.18265 36.71 5.4V16.6ZM33.7393 4.8468C33.739 4.67082 33.704 4.49662 33.6364 4.33415C33.5688 4.17168 33.4698 4.02413 33.3452 3.89991C33.2205 3.77569 33.0726 3.67724 32.9099 3.61019C32.7472 3.54313 32.5729 3.50878 32.3969 3.5091L31.3969 3.51089C31.0415 3.51153 30.701 3.65331 30.4501 3.90503C30.1993 4.15676 30.0587 4.49782 30.0593 4.8532L30.0807 17.1332C30.081 17.3092 30.116 17.4834 30.1836 17.6458C30.2512 17.8083 30.3502 17.9559 30.4748 18.0801C30.5995 18.2043 30.7474 18.3027 30.9101 18.3698C31.0728 18.4369 31.2471 18.4712 31.4231 18.4709L32.4231 18.4691C32.7785 18.4685 33.119 18.3267 33.3699 18.075C33.6207 17.8232 33.7613 17.4822 33.7607 17.1268L33.7393 4.8468Z" fill="#A8D9F0"/>
<path d="M74.7005 16.6452C74.6973 17.2453 74.576 17.839 74.3435 18.3922C74.1109 18.9455 73.7716 19.4475 73.345 19.8696C72.9185 20.2918 72.4129 20.6258 71.8573 20.8525C71.3016 21.0793 70.7067 21.1944 70.1066 21.1912L69.5866 21.1885C68.9865 21.1854 68.3928 21.0641 67.8396 20.8315C67.2863 20.5989 66.7843 20.2597 66.3622 19.8331C65.94 19.4065 65.606 18.9009 65.3793 18.3453C65.1525 17.7896 65.0374 17.1947 65.0406 16.5946L65.0995 5.35481C65.1026 4.75468 65.2239 4.16104 65.4565 3.60779C65.6891 3.05454 66.0283 2.55251 66.4549 2.13038C66.8815 1.70824 67.3871 1.37426 67.9427 1.14751C68.4984 0.920753 69.0932 0.805662 69.6934 0.808809L70.2134 0.81151C70.8135 0.814653 71.4072 0.935972 71.9604 1.16854C72.5137 1.40111 73.0157 1.74036 73.4378 2.16695C73.86 2.59353 74.1939 3.09909 74.4207 3.65474C74.6474 4.2104 74.7625 4.80527 74.7594 5.40541L74.7005 16.6452ZM71.7816 4.81651C71.7822 4.64711 71.7494 4.47924 71.6851 4.3225C71.6208 4.16577 71.5263 4.02323 71.4069 3.90302C71.2876 3.78282 71.1457 3.6873 70.9894 3.62192C70.8331 3.55655 70.6655 3.5226 70.4961 3.52201L69.3961 3.51811C69.2267 3.51752 69.0588 3.5503 68.9021 3.61458C68.7453 3.67886 68.6028 3.77339 68.4826 3.89276C68.3624 4.01213 68.2669 4.15401 68.2015 4.31029C68.1361 4.46657 68.1022 4.6342 68.1016 4.80361L68.0584 17.1835C68.0578 17.3529 68.0906 17.5208 68.1549 17.6775C68.2191 17.8343 68.3137 17.9768 68.433 18.097C68.5524 18.2172 68.6943 18.3127 68.8506 18.3781C69.0068 18.4435 69.1745 18.4774 69.3439 18.478L70.4439 18.4819C70.6133 18.4825 70.7812 18.4497 70.9379 18.3854C71.0946 18.3212 71.2372 18.2266 71.3574 18.1073C71.4776 17.9879 71.5731 17.846 71.6385 17.6897C71.7038 17.5334 71.7378 17.3658 71.7384 17.1964L71.7816 4.81651Z" fill="#A8D9F0"/>
</g>
<defs>
<clipPath id="clip0_10_527">
<rect width="128" height="21" fill="white" transform="translate(0 0.5)"/>
</clipPath>
</defs>
</svg>
