<svg width="33" height="29" viewBox="0 0 33 29" fill="none" xmlns="http://www.w3.org/2000/svg">
<g id="link" clip-path="url(#clip0_21_437)">
<path id="Vector" d="M8.71733 12.895C8.71665 12.4836 8.79516 12.0761 8.94837 11.6958C9.10159 11.3155 9.3265 10.9699 9.61024 10.6788C9.89398 10.3876 10.231 10.1567 10.6019 9.99906C10.9729 9.84146 11.3706 9.76035 11.7722 9.76035H11.7549C12.1565 9.76035 12.5542 9.84146 12.9251 9.99906C13.2961 10.1567 13.6331 10.3876 13.9168 10.6788C14.2006 10.9699 14.4255 11.3155 14.5787 11.6958C14.7319 12.0761 14.8104 12.4836 14.8097 12.895C14.8097 13.7249 14.4879 14.5209 13.915 15.1078C13.3421 15.6946 12.5651 16.0243 11.7549 16.0243H11.7722C10.962 16.0243 10.185 15.6946 9.61207 15.1078C9.03918 14.5209 8.71733 13.7249 8.71733 12.895ZM23.0096 7.34649H28.6975C29.5077 7.34649 30.2847 7.0168 30.8576 6.42993C31.4305 5.84307 31.7523 5.04711 31.7523 4.21716C31.753 3.80577 31.6745 3.39827 31.5213 3.01799C31.3681 2.63771 31.1432 2.29211 30.8594 2.00096C30.5757 1.70981 30.2387 1.47883 29.8677 1.32123C29.4968 1.16364 29.0991 1.08252 28.6975 1.08252L23.0096 1.08252C22.608 1.08252 22.2103 1.16364 21.8394 1.32123C21.4684 1.47883 21.1314 1.70981 20.8477 2.00096C20.5639 2.29211 20.339 2.63771 20.1858 3.01799C20.0326 3.39827 19.9541 3.80577 19.9548 4.21716C19.9548 5.04711 20.2766 5.84307 20.8495 6.42993C21.4224 7.0168 22.1994 7.34649 23.0096 7.34649ZM3.47377 24.7021H14.521C15.3312 24.7021 16.1082 24.3725 16.6811 23.7856C17.254 23.1987 17.5759 22.4028 17.5759 21.5728C17.5766 21.1614 17.4981 20.7539 17.3448 20.3736C17.1916 19.9934 16.9667 19.6478 16.683 19.3566C16.3992 19.0655 16.0622 18.8345 15.6913 18.6769C15.3203 18.5193 14.9226 18.4382 14.521 18.4382H3.47377C3.07216 18.4382 2.6745 18.5193 2.30353 18.6769C1.93256 18.8345 1.59556 19.0655 1.31183 19.3566C1.02809 19.6478 0.803178 19.9934 0.649963 20.3736C0.496747 20.7539 0.418234 21.1614 0.418916 21.5728C0.418916 22.4028 0.740766 23.1987 1.31366 23.7856C1.88656 24.3725 2.66357 24.7021 3.47377 24.7021ZM17.9822 16.0243H19.0627L21.5868 9.76035H20.1432L18.6045 13.869H18.5873L17.0745 9.76035H15.5359L17.9822 16.0243ZM23.5922 16.0243H24.9407V9.76035H23.5922V16.0243ZM27.4302 16.0243H31.7437V14.7545H28.7787V13.4794H31.4325V12.2043H28.7787V11.0355H31.5881V9.76035H27.4389L27.4302 16.0243ZM1.63602 7.35181H2.98451V2.3045H4.73063V1.08252H-0.110107V2.3045H1.63602V7.35181ZM6.63235 7.35181H7.98084V4.6422H10.5914V7.35181H11.9399V1.08252H10.5914V3.42022H7.9722V1.08252H6.63235V7.35181ZM13.7638 7.35181H18.0859V6.0767H15.1036V4.80159H17.7574V3.52648H15.1036V2.35763H17.913V1.08252H13.7638V7.35181ZM0.105997 16.0296H1.44584V11.2214H1.46313L3.01909 16.0296H4.0391L5.64692 11.2214H5.6642V16.0296H7.0127V9.76035H4.98131L3.56367 13.8513H3.54638L2.13738 9.76035H0.0973529L0.105997 16.0296ZM19.4845 24.7075H21.6732C22.1166 24.7098 22.5576 24.6411 22.9802 24.5038C23.3791 24.3762 23.7513 24.1738 24.078 23.907C24.3957 23.6421 24.6535 23.3098 24.8335 22.9329C25.0331 22.5152 25.1349 22.0556 25.1309 21.5905C25.145 21.0871 25.0456 20.5871 24.8405 20.1295C24.6602 19.7437 24.3922 19.4079 24.059 19.1501C23.71 18.8938 23.3144 18.712 22.8955 18.6153C22.4392 18.4985 21.9707 18.439 21.5003 18.4382H19.4759L19.4845 24.7075ZM20.8347 19.7133H21.63C21.9027 19.7123 22.1743 19.7492 22.4374 19.8231C22.6792 19.8905 22.9067 20.0034 23.1082 20.156C23.2996 20.3053 23.4547 20.4981 23.5611 20.7192C23.6799 20.9682 23.7391 21.2426 23.734 21.5197C23.7414 21.8289 23.6824 22.1361 23.5611 22.4194C23.4577 22.6528 23.2991 22.8562 23.0995 23.0109C22.893 23.166 22.6576 23.2763 22.408 23.3349C22.1245 23.4018 21.8344 23.4345 21.5436 23.4324H20.8261L20.8347 19.7133ZM27.0828 24.7075H29.5896C29.8644 24.7068 30.1384 24.6772 30.4073 24.6189C30.6679 24.5657 30.9177 24.4668 31.1455 24.3267C31.3619 24.1945 31.5453 24.0126 31.6815 23.7954C31.8272 23.5454 31.8993 23.2576 31.8889 22.9666C31.8904 22.7734 31.8582 22.5815 31.7938 22.3999C31.7341 22.2284 31.6419 22.0707 31.5224 21.9359C31.4021 21.8009 31.2585 21.6898 31.0988 21.6082C30.9265 21.5181 30.7407 21.4582 30.5491 21.4311V21.4134C30.846 21.326 31.1119 21.1526 31.3149 20.914C31.5137 20.665 31.6165 20.3499 31.6037 20.0285C31.6174 19.74 31.5483 19.4537 31.4048 19.205C31.2761 19.0003 31.0973 18.8336 30.8862 18.7215C30.6604 18.6034 30.4166 18.5255 30.1653 18.4913C29.9 18.454 29.6326 18.4351 29.3648 18.4346H27.0828V24.7075ZM28.4312 19.607H29.3475C29.4548 19.6076 29.5618 19.6177 29.6674 19.6371C29.77 19.6554 29.8691 19.6901 29.9613 19.7398C30.0476 19.787 30.1208 19.8558 30.1739 19.94C30.2317 20.0367 30.26 20.149 30.2552 20.2623C30.2582 20.3732 30.2332 20.483 30.1826 20.5811C30.1358 20.6675 30.0686 20.7406 29.9872 20.7936C29.9042 20.8483 29.8122 20.8872 29.7158 20.9087C29.6148 20.932 29.5116 20.9439 29.408 20.9441H28.4157L28.4312 19.607ZM28.4312 22.113H29.4513C29.5698 22.1136 29.6883 22.1225 29.8057 22.1395C29.9246 22.1562 30.0409 22.1889 30.1514 22.2369C30.2579 22.2817 30.3518 22.3529 30.4246 22.4441C30.499 22.5461 30.5368 22.6712 30.5318 22.7983C30.5362 22.9189 30.5081 23.0384 30.4505 23.1437C30.3975 23.2359 30.3248 23.3146 30.2379 23.3739C30.1502 23.4337 30.0522 23.4758 29.9492 23.4979C29.8452 23.5208 29.7392 23.5327 29.6328 23.5333H28.4226L28.4312 22.113Z" fill="url(#paint0_linear_21_437)"/>
</g>
<defs>
<linearGradient id="paint0_linear_21_437" x1="-0.110107" y1="12.895" x2="31.8803" y2="12.895" gradientUnits="userSpaceOnUse">
<stop stop-color="#90CEA1"/>
<stop offset="0.56" stop-color="#3CBEC9"/>
<stop offset="1" stop-color="#00B3E5"/>
</linearGradient>
<clipPath id="clip0_21_437">
<rect width="32" height="28" fill="white" transform="translate(0.110229 0.5)"/>
</clipPath>
</defs>
</svg>
